<?xml version="1.0" encoding="UTF-8"?>
<svg id="PhLynx" xmlns="http://www.w3.org/2000/svg" viewBox="0 0 2355.42 2658.64">
  <defs>
    <style>
      .cls-1 {
        fill: #bbab9e;
      }

      .cls-1, .cls-2, .cls-3, .cls-4 {
        stroke-width: 0px;
      }

      .cls-5 {
        fill: #fff;
      }

      .cls-5, .cls-6, .cls-7 {
        stroke-miterlimit: 10;
      }

      .cls-5, .cls-7 {
        stroke: #000;
        stroke-width: 25px;
      }

      .cls-2, .cls-6 {
        fill: none;
      }

      .cls-6 {
        stroke: #231f20;
        stroke-width: 28px;
      }

      .cls-3 {
        fill: #81634b;
      }

      .cls-4 {
        fill: #231f20;
      }

      .cls-7 {
        fill: #f2f2f3;
      }
    </style>
  </defs>
  <g id="Enlarged">
    <g id="Enlarged-colours">
      <g id="v0.2.0">
        <path class="cls-1" d="M2053.05,764.45l-85.63,68.59-163.47,157.13-147.9,163.46-85.63,89.51-301.29-39.77v-.05l-.17.02-.17-.02v.05l-301.29,39.76-85.62-89.52-147.9-163.46-163.46-157.14-85.62-68.6-55.01,96.45-38.4,121.51,31.14,303.58s29.99,112.46,46.7,175.14c16.71,62.68,74.43,140.11,74.43,140.11l-74.43,233.52,73.95,482.61,214.06-81.73,214.06,93.41,297.26,81.4v.16l.28-.08.28.08v-.16l297.26-81.39,214.07-93.4,214.06,81.74,73.97-482.61-74.42-233.52s57.72-77.43,74.44-140.11c16.72-62.68,46.71-175.14,46.71-175.14l31.15-303.58-38.55-121.52-54.85-96.44Z"/>
        <path class="cls-3" d="M532.69,939.57c145.81,96.09,285.27,325.63,285.27,325.63,0,0-145.97,142.16-180.22,230.66l-54.1-118.84s-29.16-66.8,55.25-87.24c0,0-32.27-20.44-94.99,0l-11.21-24.58c-10.11-125.87,58.85-133.46,58.85-133.46-58.85-53.1-93.43-25.29-93.43-25.29-20.14-96.09,34.59-166.89,34.59-166.89Z"/>
        <path class="cls-3" d="M2004.92,939.61c-145.81,96.08-285.29,325.62-285.29,325.62,0,0,145.96,142.17,180.21,230.67l54.11-118.83s29.17-66.8-55.25-87.25c0,0,32.27-20.44,94.99,0l11.21-24.58c10.12-125.87-58.84-133.46-58.84-133.46,58.85-53.1,93.43-25.28,93.43-25.28,20.15-96.09-34.58-166.89-34.58-166.89Z"/>
      </g>
    </g>
    <g id="Enlarged-line-art">
      <g>
        <path class="cls-6" d="M918.74,1199.59s-108.36-137.22-179.89-212.3c-49.62-52.08-124.59-119.46-165.86-155.86"/>
        <polygon class="cls-4" points="663.74 832.86 580.65 838.26 586.1 921.35 548.53 888.39 543.11 805.32 626.17 799.9 663.74 832.86"/>
      </g>
      <g>
        <path class="cls-6" d="M443.22,825.55s-56.62,90.95-52.31,244.81c3.02,108.01,27.47,219.24,41.77,275.94"/>
        <polygon class="cls-4" points="358.12 1294.58 430.14 1336.36 471.88 1264.3 484.73 1312.6 442.99 1384.62 370.97 1342.88 358.12 1294.58"/>
      </g>
      <polygon class="cls-2" points="1269.11 673.61 1269.07 2459.21 284.81 2459.21 284.81 673.61 1269.11 673.61"/>
      <path class="cls-4" d="M2003.43,1587.91l-80.75,26.7s114.66,164.73,108.18,397.29c0,0-61.37-47.65-148.58-35.54,0,0,102.95,115.07,95.68,224.49,0,0-56.52-39.15-170.78-38.75-82.89,1.55-140.09,32.07-193.8,67.8-58.26,38.76-111.11,86.19-189.57,87.81-78.46,1.61-127.58-64.81-129.39-70.06-1.81-5.25-4.65-45.49,0-50.06,4.65-4.58,100.13-93.66,119.51-123.14,19.38-29.47,11.31-56.93-32.7-55.31-42.41,1.55-107.32,18.85-111.97,20.11-4.65-1.25-69.56-18.56-111.97-20.11-44.01-1.61-52.08,25.84-32.7,55.31,19.38,29.47,114.85,118.57,119.51,123.14,4.65,4.58,1.81,44.81,0,50.06s-50.93,71.67-129.39,70.05c-78.46-1.61-131.31-49.05-189.57-87.82-53.71-35.74-110.91-66.26-193.8-67.81-114.26-.4-170.78,38.74-170.78,38.74-7.27-109.41,95.69-224.48,95.69-224.48-87.21-12.11-148.58,35.53-148.58,35.53-6.46-232.56,108.2-397.28,108.2-397.28l-80.75-26.7c-41.45,50.79-122.74,259.93-122.74,477.28s145.35,339.15,145.35,339.15c0,0,32.84-140.5,193.8-140.5,211.36,0,321.17,195.03,517.44,195.41h0c.1,0,.19,0,.29,0s.19,0,.28,0h0c196.27-.37,306.09-195.4,517.45-195.39,160.96,0,193.79,140.51,193.79,140.51,0,0,145.35-121.79,145.36-339.14.01-217.35-81.27-426.49-122.71-477.29Z"/>
      <circle class="cls-7" cx="477.02" cy="761.16" r="72.05"/>
      <circle class="cls-5" cx="972.88" cy="1253.28" r="72.05"/>
      <circle class="cls-5" cx="465.85" cy="1460.33" r="72.05"/>
      <circle class="cls-7" cx="2061.2" cy="761.2" r="72.05"/>
      <circle class="cls-5" cx="1565.32" cy="1253.29" r="72.05"/>
      <circle class="cls-5" cx="2072.34" cy="1460.37" r="72.05"/>
      <path class="cls-6" d="M1619.46,1199.61s108.37-137.21,179.9-212.29c49.62-52.08,124.59-119.46,165.87-155.85"/>
      <polygon class="cls-4" points="1874.48 832.89 1957.57 838.3 1952.12 921.38 1989.69 888.42 1995.12 805.36 1912.05 799.93 1874.48 832.89"/>
      <g>
        <path class="cls-6" d="M2095,825.59s56.61,90.95,52.3,244.82c-3.03,108.01-27.48,219.23-41.78,275.94"/>
        <polygon class="cls-4" points="2180.08 1294.62 2108.05 1336.4 2066.32 1264.34 2053.46 1312.64 2095.2 1384.66 2167.23 1342.92 2180.08 1294.62"/>
      </g>
      <polygon class="cls-2" points="1269.11 673.61 1269.07 2459.21 2253.33 2459.26 2253.42 673.66 1269.11 673.61"/>
      <g>
        <path class="cls-6" d="M1089.52,1222.1c33.81-8.14,94.78-19,179.41-19s145.79,10.88,179.66,19.02"/>
        <polygon class="cls-4" points="1156.11 1252.76 1097.52 1219.95 1130.36 1161.38 1091.57 1172.31 1058.75 1230.87 1117.32 1263.69 1156.11 1252.76"/>
        <polygon class="cls-4" points="1382.02 1252.81 1440.59 1219.97 1407.72 1161.42 1446.52 1172.33 1479.37 1230.87 1420.82 1263.72 1382.02 1252.81"/>
      </g>
      <path class="cls-4" d="M869.24,1814.3c78.33,45.62,145.35,11.3,145.35,11.3,0,0,53.7,25.44,92.05,87.21,0,0,0-155.04-125.97-232.56-125.97-77.52-243.86-40.37-243.86-40.37,43.6,11.3,71.06,38.76,71.06,38.76,0,0-16.96,90.04,61.37,135.66Z"/>
      <path class="cls-4" d="M1431.53,1912.82c38.36-61.77,92.06-87.2,92.06-87.2,0,0,67.02,34.32,145.35-11.3,78.33-45.62,61.38-135.66,61.38-135.66,0,0,27.46-27.45,71.06-38.76,0,0-117.89-37.15-243.86,40.36-125.97,77.51-125.98,232.55-125.98,232.55Z"/>
    </g>
  </g>
</svg>