<?xml version="1.0" encoding="UTF-8"?>
<svg xmlns="http://www.w3.org/2000/svg" viewBox="0 0 2172.31 2172.31">
  <defs>
    <style>
      .cls-1 {
        fill: #bbab9e;
      }

      .cls-1, .cls-2, .cls-3, .cls-4, .cls-5 {
        stroke-width: 0px;
      }

      .cls-6 {
        fill: #fff;
      }

      .cls-6, .cls-7, .cls-8, .cls-9 {
        stroke-miterlimit: 10;
      }

      .cls-6, .cls-9 {
        stroke: #000;
        stroke-width: 25px;
      }

      .cls-7 {
        stroke-width: 26px;
      }

      .cls-7, .cls-2, .cls-8 {
        fill: none;
      }

      .cls-7, .cls-8 {
        stroke: #231f20;
      }

      .cls-8 {
        stroke-width: 28px;
      }

      .cls-3 {
        fill: #81634b;
      }

      .cls-4 {
        fill: #231f20;
      }

      .cls-5 {
        fill: #f4f1ef;
      }

      .cls-9 {
        fill: #f2f2f3;
      }
    </style>
  </defs>
  <g id="Background">
    <g id="Rounded_rectangle" data-name="Rounded rectangle">
      <rect class="cls-5" width="2172.31" height="2172.31" rx="277.08" ry="277.08"/>
    </g>
  </g>
  <g id="Colour_Big" data-name="Colour Big">
    <path class="cls-1" d="M1870.56,283.93l-85.63,68.59-163.47,157.13-147.9,163.46-85.63,89.51-301.29-39.77v-.05l-.17.02-.17-.02v.05l-301.29,39.76-85.62-89.52-147.9-163.46-163.46-157.14-85.62-68.6-55.01,96.45-38.4,121.51,31.14,303.58s29.99,112.46,46.7,175.14c16.71,62.68,74.43,140.11,74.43,140.11l-74.43,233.52,73.95,482.61,214.06-81.73,214.06,93.41,297.26,81.4v.16l.28-.08.28.08v-.16l297.26-81.39,214.07-93.4,214.06,81.74,73.97-482.61-74.42-233.52s57.72-77.43,74.44-140.11c16.72-62.68,46.71-175.14,46.71-175.14l31.15-303.58-38.55-121.52-54.85-96.44Z"/>
    <path class="cls-3" d="M350.2,459.05c145.81,96.09,285.27,325.63,285.27,325.63,0,0-145.97,142.16-180.22,230.66l-54.1-118.84s-29.16-66.8,55.25-87.24c0,0-32.27-20.44-94.99,0l-11.21-24.58c-10.11-125.87,58.85-133.46,58.85-133.46-58.85-53.1-93.43-25.29-93.43-25.29-20.14-96.09,34.59-166.89,34.59-166.89Z"/>
    <path class="cls-3" d="M1822.43,459.09c-145.81,96.08-285.29,325.62-285.29,325.62,0,0,145.96,142.17,180.21,230.67l54.11-118.83s29.17-66.8-55.25-87.25c0,0,32.27-20.44,94.99,0l11.21-24.58c10.12-125.87-58.84-133.46-58.84-133.46,58.85-53.1,93.43-25.28,93.43-25.28,20.15-96.09-34.58-166.89-34.58-166.89Z"/>
  </g>
  <g id="Line_art_Big" data-name="Line art Big">
    <g>
      <path class="cls-8" d="M735.95,719.3s-108.36-137.22-179.89-212.3c-49.62-52.08-124.59-119.46-165.86-155.86"/>
      <polygon class="cls-4" points="480.94 352.58 397.85 357.98 403.3 441.07 365.74 408.1 360.31 325.04 443.38 319.61 480.94 352.58"/>
    </g>
    <g>
      <path class="cls-8" d="M260.43,345.27s-56.62,90.95-52.31,244.81c3.02,108.01,27.47,219.24,41.77,275.94"/>
      <polygon class="cls-4" points="175.32 814.3 247.35 856.07 289.08 784.02 301.94 832.32 260.19 904.34 188.18 862.59 175.32 814.3"/>
    </g>
    <polygon class="cls-2" points="1086.32 193.33 1086.28 1978.93 102.01 1978.93 102.01 193.33 1086.32 193.33"/>
    <path class="cls-4" d="M1820.64,1107.63l-80.75,26.7s114.66,164.73,108.18,397.29c0,0-61.37-47.65-148.58-35.54,0,0,102.95,115.07,95.68,224.49,0,0-56.52-39.15-170.78-38.75-82.89,1.55-140.09,32.07-193.8,67.8-58.26,38.76-111.11,86.19-189.57,87.81-78.46,1.61-127.58-64.81-129.39-70.06-1.81-5.25-4.65-45.49,0-50.06,4.65-4.58,100.13-93.66,119.51-123.14,19.38-29.47,11.31-56.93-32.7-55.31-42.41,1.55-107.32,18.85-111.97,20.11-4.65-1.25-69.56-18.56-111.97-20.11-44.01-1.61-52.08,25.84-32.7,55.31,19.38,29.47,114.85,118.57,119.51,123.14,4.65,4.58,1.81,44.81,0,50.06-1.81,5.25-50.93,71.67-129.39,70.05-78.46-1.61-131.31-49.05-189.57-87.82-53.71-35.74-110.91-66.26-193.8-67.81-114.26-.4-170.78,38.74-170.78,38.74-7.27-109.41,95.69-224.48,95.69-224.48-87.21-12.11-148.58,35.53-148.58,35.53-6.46-232.56,108.2-397.28,108.2-397.28l-80.75-26.7c-41.45,50.79-122.74,259.93-122.74,477.28s145.35,339.15,145.35,339.15c0,0,32.84-140.5,193.8-140.5,211.36,0,321.17,195.03,517.44,195.41h0c.1,0,.19,0,.29,0s.19,0,.28,0h0c196.27-.37,306.09-195.4,517.45-195.39,160.96,0,193.79,140.51,193.79,140.51,0,0,145.35-121.79,145.36-339.14.01-217.35-81.27-426.49-122.71-477.29Z"/>
    <circle class="cls-9" cx="294.23" cy="280.88" r="72.05"/>
    <circle class="cls-6" cx="790.09" cy="772.99" r="72.05"/>
    <circle class="cls-6" cx="283.06" cy="980.05" r="72.05"/>
    <circle class="cls-9" cx="1878.4" cy="280.92" r="72.05"/>
    <circle class="cls-6" cx="1382.53" cy="773.01" r="72.05"/>
    <circle class="cls-6" cx="1889.54" cy="980.09" r="72.05"/>
    <path class="cls-8" d="M1436.67,719.32s108.37-137.21,179.9-212.29c49.62-52.08,124.59-119.46,165.87-155.85"/>
    <polygon class="cls-4" points="1691.69 352.61 1774.78 358.01 1769.32 441.1 1806.89 408.14 1812.32 325.07 1729.26 319.65 1691.69 352.61"/>
    <g>
      <path class="cls-8" d="M1912.21,345.31s56.61,90.95,52.3,244.82c-3.03,108.01-27.48,219.23-41.78,275.94"/>
      <polygon class="cls-4" points="1997.29 814.34 1925.26 856.11 1883.53 784.06 1870.67 832.36 1912.41 904.38 1984.43 862.64 1997.29 814.34"/>
    </g>
    <polygon class="cls-2" points="1086.32 193.33 1086.28 1978.93 2070.54 1978.98 2070.63 193.38 1086.32 193.33"/>
    <g>
      <path class="cls-7" d="M904.51,742.35c33.33-8.19,95.12-19.54,181.63-19.54s148.5,11.37,181.88,19.56"/>
      <polygon class="cls-4" points="966.44 770.58 911.92 740.31 942.21 685.81 906.23 696.1 875.96 750.59 930.45 780.86 966.44 770.58"/>
      <polygon class="cls-4" points="1206.11 770.64 1260.61 740.34 1230.28 685.86 1266.27 696.12 1296.57 750.59 1242.1 780.9 1206.11 770.64"/>
    </g>
    <path class="cls-4" d="M686.45,1334.02c78.33,45.62,145.35,11.3,145.35,11.3,0,0,53.7,25.44,92.05,87.21,0,0,0-155.04-125.97-232.56-125.97-77.52-243.86-40.37-243.86-40.37,43.6,11.3,71.06,38.76,71.06,38.76,0,0-16.96,90.04,61.37,135.66Z"/>
    <path class="cls-4" d="M1248.73,1432.54c38.36-61.77,92.06-87.2,92.06-87.2,0,0,67.02,34.32,145.35-11.3,78.33-45.62,61.38-135.66,61.38-135.66,0,0,27.46-27.45,71.06-38.76,0,0-117.89-37.15-243.86,40.36-125.97,77.51-125.98,232.55-125.98,232.55Z"/>
  </g>
</svg>